<svg width="278" height="22" viewBox="0 0 278 22" fill="none" xmlns="http://www.w3.org/2000/svg">
<path d="M5.36154 0C2.40366 0 0 2.32657 0 5.18958C0 8.05259 2.40366 10.3792 5.36154 10.3792C8.31941 10.3792 10.7231 8.05259 10.7231 5.18958C10.7231 2.32657 8.31941 0 5.36154 0ZM5.36154 7.91999C3.80476 7.91999 2.54689 6.69643 2.54689 5.19561C2.54689 3.69479 3.81099 2.47123 5.36154 2.47123C6.91209 2.47123 8.17619 3.69479 8.17619 5.19561C8.17619 6.69643 6.91209 7.91999 5.36154 7.91999Z" fill="white"/>
<path d="M20.9081 3.96C20.9081 1.72383 19.3327 0 17.0784 0H11.748V10.3671H14.1517V7.90794H17.0784C19.2579 7.90794 20.9143 6.19616 20.9143 3.95397L20.9081 3.96ZM17.066 5.51506H14.1517V2.3989H17.066C18.0748 2.3989 18.3799 3.31507 18.3799 3.95397C18.3799 4.59287 18.0748 5.50904 17.066 5.50904V5.51506Z" fill="white"/>
<path d="M10.3491 16.1956H5.57289V18.0521H7.76483C7.59047 18.8718 6.7 19.6011 5.36117 19.6011C3.77326 19.6011 2.48425 18.3534 2.48425 16.8165C2.48425 15.2795 3.77326 14.074 5.36117 14.074C6.13956 14.074 6.86813 14.3271 7.41612 14.8696L7.54066 14.9902L7.68388 14.8937L9.41502 13.7726L9.60806 13.6461L9.45861 13.4713C8.43736 12.2959 6.94285 11.6208 5.36117 11.6208C2.40952 11.6208 0.00585938 13.9474 0.00585938 16.8044C0.00585938 19.6614 2.40952 21.988 5.36117 21.988C7.98901 21.988 9.87582 20.5233 10.2806 18.1666C10.3802 17.5819 10.4051 17.2866 10.3927 16.8044C10.3802 16.5151 10.3678 16.3102 10.3553 16.1836L10.3491 16.1956Z" fill="white"/>
<path d="M21.6001 16.1955H16.8239V18.052H19.0158C18.8414 18.8717 17.951 19.6071 16.6121 19.6071C15.0242 19.6071 13.7352 18.3594 13.7352 16.8224C13.7352 15.2854 15.0242 14.0799 16.6121 14.0799C17.3905 14.0799 18.1191 14.3331 18.6671 14.8755L18.7916 14.9961L18.9349 14.8997L20.666 13.7846L20.859 13.658L20.7096 13.4832C19.6883 12.3079 18.1938 11.6328 16.6121 11.6328C13.6605 11.6328 11.2568 13.9594 11.2568 16.8164C11.2568 19.6734 13.6605 21.9999 16.6121 21.9999C19.24 21.9999 21.1268 20.5353 21.5316 18.1786C21.6312 17.5939 21.6561 17.2986 21.6436 16.8164C21.6312 16.5271 21.6187 16.3221 21.6063 16.1955H21.6001Z" fill="white"/>
<path d="M20.9107 8.26953C20.3131 8.26953 19.8213 8.73954 19.8213 9.32404C19.8213 9.90853 20.3069 10.3785 20.9107 10.3785C21.5146 10.3785 22.0002 9.90853 22.0002 9.32404C22.0002 8.73954 21.5146 8.26953 20.9107 8.26953Z" fill="white"/>
<path d="M85.9283 15.7754V21.6444H61.1143V0.355469H67.8028V15.7754H85.9283Z" fill="white"/>
<path d="M149.451 0.355469L137.502 13.0999V21.6444H130.934V13.0698L119.039 0.355469H127.312L134.218 7.56226L141.123 0.355469H149.457H149.451Z" fill="white"/>
<path d="M157.717 6.13416V8.26125H174.414V13.7989H157.717V15.8657H176.481V21.6444H151.028V0.355469H176.481V6.13416H157.717Z" fill="white"/>
<path d="M222.756 0.50415C225.419 0.50415 227.317 2.25764 227.317 4.85474C227.317 7.45184 225.413 9.20533 222.756 9.20533H219.568C216.965 9.20533 215.007 7.46389 215.007 4.85474C215.007 2.24559 216.911 0.50415 219.568 0.50415H222.756ZM222.756 6.74682C223.883 6.74682 224.66 5.93937 224.66 4.86077C224.66 3.78216 223.889 2.97471 222.756 2.97471H219.568C218.442 2.97471 217.664 3.79421 217.664 4.86077C217.664 5.92732 218.435 6.74682 219.568 6.74682H222.756Z" fill="white"/>
<path d="M231.258 2.93244V4.08938H237.784V6.37314H231.258V9.06665H228.643V0.648682H238.591V2.93244H231.258Z" fill="white"/>
<path d="M254.559 2.96859H250.196V9.06665H247.581V2.96859H243.23V0.648682H254.559V2.96859Z" fill="white"/>
<path d="M266.472 0.648682V9.06665H263.857V5.93929H257.686V9.06665H255.071V0.648682H257.686V3.59527H263.857V0.648682H266.472Z" fill="white"/>
<path d="M270.297 2.93244V3.77604H276.823V5.96339H270.297V6.78289H277.63V9.06665H267.682V0.648682H277.63V2.93244H270.297Z" fill="white"/>
<path d="M233.535 13.1582L229.955 21.5762H226.629L224.159 16.2374L221.676 21.5762H218.362L214.771 13.1582H217.609L220.055 19.0273L222.682 13.1582H225.394L228.22 19.0875L230.703 13.1582H233.529H233.535Z" fill="white"/>
<path d="M236.855 15.442V16.2856H243.381V18.4729H236.855V19.2924H244.189V21.5762H234.24V13.1582H244.189V15.442H236.855Z" fill="white"/>
<path d="M247.984 15.442V16.2856H254.51V18.4729H247.984V19.2924H255.318V21.5762H245.369V13.1582H255.318V15.442H247.984Z" fill="white"/>
<path d="M265.047 17.3641L267.795 21.5701H264.848L262.806 18.4427H259.136V21.5701H256.509V13.1521H259.136V16.1348H262.878L264.848 13.1521H267.795L265.047 17.3581V17.3641Z" fill="white"/>
<path d="M29.6748 21.6444H36.3634V6.22455H49.379C50.6565 6.22455 51.723 7.26097 51.723 8.56856C51.723 9.87615 50.6565 10.9126 49.379 10.9126H38.7616V16.7817H49.379C54.8202 16.7817 58.4116 13.0999 58.4116 8.56856C58.4116 4.0372 54.8263 0.355469 49.379 0.355469H29.6748V21.6444Z" fill="white"/>
<path d="M178.884 21.6445H185.602V6.22462H198.588C199.865 6.22462 200.932 7.26105 200.932 8.56864C200.932 9.87622 199.865 10.9127 198.588 10.9127H187.995V16.7817H196.491L199.377 21.6505H207.132L203.24 15.6911C205.976 14.2931 207.621 11.6177 207.621 8.57466C207.621 4.0433 204.029 0.361572 198.588 0.361572H178.884V21.6505V21.6445Z" fill="white"/>
<path d="M97.2666 12.3347L98.8514 6.22461L97.2666 12.3347Z" fill="white"/>
<path d="M88.1143 21.6444H94.8631L98.8521 6.22455H108.855L110.434 12.3347H99.6596L98.1291 18.27H111.988L112.868 21.6444H119.653L114.025 0.355469H93.7423L88.1143 21.6444Z" fill="white"/>
</svg>
