<svg width="24" height="24" viewBox="0 0 24 24" fill="none" xmlns="http://www.w3.org/2000/svg">
<path d="M20.8751 7.97019C20.8736 7.96222 20.8721 7.95425 20.8706 7.94628C20.8462 7.80478 20.8192 7.66678 20.7888 7.53326C20.7843 7.51383 20.7788 7.49539 20.7743 7.47596C20.7458 7.3549 20.7159 7.23582 20.6829 7.12123C20.6754 7.09483 20.6665 7.07091 20.659 7.04501C20.627 6.93938 20.5951 6.83476 20.5596 6.73412C20.5486 6.70273 20.5362 6.67334 20.5247 6.64245C20.4907 6.55028 20.4568 6.45861 20.4203 6.37092C20.4059 6.33555 20.3894 6.30267 20.3744 6.26829C20.3395 6.18808 20.304 6.10737 20.2671 6.03064C20.2486 5.99228 20.2286 5.9569 20.2097 5.91954C20.1742 5.84979 20.1388 5.77954 20.1013 5.71278C20.0789 5.67242 20.0554 5.63506 20.0325 5.5957C19.997 5.53541 19.9621 5.47413 19.9251 5.41634C19.8992 5.37499 19.8717 5.33663 19.8453 5.29677C19.8103 5.24446 19.7759 5.19115 19.7399 5.14133C19.7105 5.09998 19.68 5.06111 19.6501 5.02126C19.6161 4.97592 19.5827 4.93008 19.5482 4.88674C19.5153 4.84539 19.4818 4.80702 19.4489 4.76767C19.4164 4.72881 19.384 4.68895 19.351 4.65208C19.3151 4.61123 19.2786 4.57336 19.2422 4.5345C19.2118 4.50162 19.1813 4.46774 19.1504 4.43635C19.1114 4.3965 19.0725 4.35963 19.034 4.32176C19.0056 4.29386 18.9771 4.26497 18.9482 4.23856C18.9067 4.1997 18.8653 4.16383 18.8239 4.12746C18.7979 4.10454 18.7719 4.08113 18.7465 4.0592C18.7021 4.02134 18.6581 3.98647 18.6142 3.95109C18.5917 3.93316 18.5688 3.91373 18.5463 3.89629C18.4994 3.85992 18.4535 3.82604 18.4075 3.79216C18.3886 3.77821 18.3691 3.76326 18.3501 3.74931C18.3012 3.71394 18.2528 3.68156 18.2048 3.64917C18.1899 3.63921 18.1744 3.62825 18.1594 3.61828C18.1075 3.58441 18.0571 3.55252 18.0072 3.52163C17.9967 3.51515 17.9862 3.50818 17.9762 3.5022C17.9218 3.46932 17.8689 3.43843 17.8175 3.40903C17.8125 3.40605 17.8075 3.40306 17.8025 3.40007C17.2758 3.10463 16.8974 3 16.8974 3C16.7736 3.43195 16.5245 3.70149 16.201 3.85543C15.1911 4.33422 13.4594 3.68056 12.5678 3.27651C12.2213 3.11957 12.0007 3 12.0007 3C12.0007 3 7.76238 5.30275 7.10343 3C7.10343 3 6.9297 3.04883 6.65963 3.1684C6.65214 3.17139 6.64465 3.17537 6.63716 3.17886C6.60072 3.1953 6.56328 3.21224 6.52334 3.23117C6.50937 3.23765 6.49439 3.24562 6.48041 3.25259C6.44497 3.27003 6.41002 3.28697 6.37258 3.3064C6.35311 3.31637 6.33265 3.32783 6.31268 3.33829C6.27823 3.35672 6.24429 3.37466 6.20834 3.39459C6.18438 3.40804 6.15992 3.42249 6.13546 3.43644C6.10151 3.45587 6.06807 3.4753 6.03312 3.49622C6.00566 3.51266 5.97721 3.5311 5.94925 3.54903C5.91581 3.56996 5.88336 3.59038 5.84941 3.61231C5.81846 3.63273 5.78701 3.65465 5.75556 3.67608C5.72311 3.6985 5.69066 3.71992 5.65772 3.74334C5.62477 3.76725 5.59082 3.79266 5.55737 3.81757C5.52493 3.84148 5.49298 3.8649 5.46053 3.89031C5.42558 3.91721 5.39064 3.94661 5.35519 3.9755C5.32324 4.00141 5.29179 4.02632 5.25935 4.05372C5.2229 4.08461 5.18696 4.1175 5.15052 4.14988C5.11907 4.17778 5.08812 4.20468 5.05667 4.23408C5.01973 4.26845 4.98328 4.30482 4.94684 4.34119C4.91589 4.37159 4.88494 4.40098 4.85399 4.43287C4.81705 4.47073 4.7806 4.51109 4.74366 4.55044C4.71321 4.58333 4.68276 4.61521 4.65231 4.64909C4.61537 4.69044 4.57942 4.73528 4.54298 4.77863C4.51353 4.814 4.48357 4.84788 4.45462 4.88475C4.41868 4.93008 4.38323 4.97841 4.34779 5.02574C4.31933 5.0641 4.29038 5.10047 4.26193 5.14033C4.22698 5.18965 4.19303 5.24197 4.15859 5.29328C4.13113 5.33414 4.10318 5.37349 4.07672 5.41584C4.04277 5.46915 4.01032 5.52595 3.97788 5.58125C3.95192 5.62509 3.92546 5.66744 3.9 5.71278C3.86805 5.77007 3.8376 5.83086 3.80715 5.89064C3.78268 5.93747 3.75772 5.98331 3.73426 6.03164C3.70431 6.09342 3.67635 6.15818 3.6479 6.22245C3.62543 6.27277 3.60197 6.3211 3.5805 6.37291C3.55305 6.43918 3.52809 6.50893 3.50213 6.57718C3.48216 6.63049 3.46069 6.68231 3.44122 6.73711C3.41676 6.80686 3.3948 6.88059 3.37233 6.95333C3.35436 7.01113 3.33489 7.06643 3.31792 7.12572C3.29695 7.19945 3.27898 7.27668 3.25951 7.3529C3.24404 7.41468 3.22656 7.47497 3.21209 7.53824C3.19462 7.61596 3.18014 7.69767 3.16466 7.77838C3.15168 7.84464 3.13721 7.90841 3.12622 7.97617C3.11274 8.05638 3.10276 8.14108 3.09128 8.22378C3.08129 8.29602 3.06981 8.36627 3.06133 8.44051C3.05234 8.52022 3.04735 8.60442 3.04036 8.68612C3.03337 8.76783 3.02488 8.84705 3.01989 8.93125C3.0154 9.00598 3.0149 9.0847 3.0124 9.16092C3.00891 9.25658 3.00392 9.35074 3.00342 9.44889C3.00342 9.5027 3.00591 9.55949 3.00641 9.6143C3.00891 9.91871 3.02139 10.2341 3.05184 10.5659C3.62094 16.8638 12.0027 20.999 12.0027 20.999C12.0027 20.999 13.6071 20.2073 15.4602 18.7894C17.8424 16.9665 20.635 14.1082 20.9555 10.5654C21.0444 9.58142 21.0064 8.721 20.8791 7.9682L20.8751 7.97019ZM15.2455 11.7701L14.294 12.2872C13.711 12.6031 13.2332 13.0794 12.9172 13.6613L12.399 14.6109C12.2363 14.9133 11.7995 14.9123 11.6328 14.6074L11.1051 13.6528C10.7831 13.0679 10.3009 12.5866 9.71479 12.2653L8.75831 11.7387C8.45379 11.5733 8.45029 11.1373 8.75481 10.9739L9.7063 10.4568C10.2894 10.1409 10.7671 9.66462 11.0831 9.0827L11.6013 8.13311C11.764 7.83069 12.2009 7.83169 12.3676 8.13659L12.8953 9.09117C13.2172 9.67608 13.6995 10.1574 14.2856 10.4787L15.242 11.0053C15.5466 11.1707 15.5501 11.6067 15.2455 11.7701Z" fill="url(#paint0_linear_5359_146309)"/>
<defs>
<linearGradient id="paint0_linear_5359_146309" x1="21.0039" y1="20.999" x2="3.00342" y2="20.999" gradientUnits="userSpaceOnUse">
<stop stop-color="#4C8CFF"/>
<stop offset="1" stop-color="#36D2F4"/>
</linearGradient>
</defs>
</svg>
